<svg width="32" height="32" viewBox="0 0 32 32" fill="none" xmlns="http://www.w3.org/2000/svg">
<path d="M9.75 17.5625C10.6129 17.5625 11.3125 16.8629 11.3125 16C11.3125 15.1371 10.6129 14.4375 9.75 14.4375C8.88706 14.4375 8.1875 15.1371 8.1875 16C8.1875 16.8629 8.88706 17.5625 9.75 17.5625Z" fill="white"/>
<path d="M21 23.8125C21.8629 23.8125 22.5625 23.1129 22.5625 22.25C22.5625 21.3871 21.8629 20.6875 21 20.6875C20.1371 20.6875 19.4375 21.3871 19.4375 22.25C19.4375 23.1129 20.1371 23.8125 21 23.8125Z" fill="white"/>
<path d="M21 11.3125C21.8629 11.3125 22.5625 10.6129 22.5625 9.75C22.5625 8.88706 21.8629 8.1875 21 8.1875C20.1371 8.1875 19.4375 8.88706 19.4375 9.75C19.4375 10.6129 20.1371 11.3125 21 11.3125Z" fill="white"/>
<path d="M16 0C7.17756 0 0 7.17756 0 16C0 24.8224 7.17756 32 16 32C24.8224 32 32 24.8224 32 16C32 7.17756 24.8224 0 16 0ZM13.1875 16C13.1875 16.2706 13.1551 16.5336 13.0957 16.7863L18.5659 19.8253C19.1887 19.2001 20.0499 18.8125 21 18.8125C22.8954 18.8125 24.4375 20.3546 24.4375 22.25C24.4375 24.1454 22.8954 25.6875 21 25.6875C19.1046 25.6875 17.5625 24.1454 17.5625 22.25C17.5625 21.9794 17.5949 21.7164 17.6543 21.4637L12.1841 18.4247C11.5613 19.0499 10.7001 19.4375 9.75 19.4375C7.85456 19.4375 6.3125 17.8954 6.3125 16C6.3125 14.1046 7.85456 12.5625 9.75 12.5625C10.7001 12.5625 11.5613 12.9501 12.1841 13.5752L17.6543 10.5363C17.5949 10.2836 17.5625 10.0206 17.5625 9.75C17.5625 7.85456 19.1046 6.3125 21 6.3125C22.8954 6.3125 24.4375 7.85456 24.4375 9.75C24.4375 11.6454 22.8954 13.1875 21 13.1875C20.0499 13.1875 19.1887 12.7999 18.5659 12.1748L13.0957 15.2137C13.1551 15.4664 13.1875 15.7294 13.1875 16V16Z" fill="white"/>
</svg>
